<svg xmlns="http://www.w3.org/2000/svg" viewBox="0 0 220 150" fill="none">
<defs><radialGradient id="halo"><stop stop-color="#d6bd88" stop-opacity=".48"/><stop offset=".56" stop-color="#b69254" stop-opacity=".1"/><stop offset="1" stop-color="#b69254" stop-opacity="0"/></radialGradient><linearGradient id="gold" x1="20" y1="30" x2="190" y2="125" gradientUnits="userSpaceOnUse"><stop stop-color="#7f6946"/><stop offset=".47" stop-color="#f2ddad"/><stop offset="1" stop-color="#96763e"/></linearGradient></defs>
<ellipse cx="110" cy="75" rx="107" ry="59" stroke="#b99454" stroke-opacity=".23" transform="rotate(-18 110 75)"/>
<circle cx="75" cy="76" r="67" fill="url(#halo)"/><circle cx="147" cy="70" r="58" fill="url(#halo)"/>
<circle cx="75" cy="76" r="32" fill="#0d1010" stroke="url(#gold)" stroke-width="1.5"/><circle cx="147" cy="70" r="24" fill="#0d1010" stroke="url(#gold)" stroke-width="1.3"/>
<ellipse cx="75" cy="76" rx="53" ry="12" stroke="url(#gold)" stroke-width="1.2" transform="rotate(-25 75 76)"/>
<path d="M47 60A32 32 0 0 1 103 92" fill="#0d1010" stroke="url(#gold)" stroke-width="1.3"/>
<ellipse cx="147" cy="70" rx="42" ry="9" stroke="url(#gold)" stroke-width="1" transform="rotate(25 147 70)"/>
<path d="M125 61A24 24 0 0 1 169 80" fill="#0d1010" stroke="url(#gold)" stroke-width="1.2"/>
<circle cx="191" cy="42" r="2.5" fill="#e6cf9b"/><path d="M30 114h6m-3-3v6" stroke="#bd9f65" stroke-width=".8"/><circle cx="116" cy="22" r="1" fill="#ead5a6"/>
</svg>
